<mxfile host="app.diagrams.net" modified="2022-03-03T09:27:30.293Z" agent="5.0 (X11; CrOS x86_64 14388.52.0) AppleWebKit/537.36 (KHTML, like Gecko) Chrome/98.0.4758.91 Safari/537.36" etag="Z2M_xRnG3beKhxNcU-Iy" version="16.6.5" type="github">
  <diagram id="f2ft8yqFwmNnthZ0CB6P" name="Page-1">
    <mxGraphModel dx="2294" dy="1313" grid="1" gridSize="10" guides="1" tooltips="1" connect="1" arrows="1" fold="1" page="1" pageScale="1" pageWidth="827" pageHeight="1169" math="0" shadow="0">
      <root>
        <mxCell id="0" />
        <mxCell id="1" parent="0" />
        <mxCell id="B4CApN_U5xcei9GQMjOe-1" value="Internet" style="ellipse;shape=cloud;whiteSpace=wrap;html=1;" vertex="1" parent="1">
          <mxGeometry x="30" y="140" width="120" height="80" as="geometry" />
        </mxCell>
      </root>
    </mxGraphModel>
  </diagram>
</mxfile>
